<?xml version="1.0" encoding="iso-8859-1"?>
<!-- Generator: Adobe Illustrator 16.0.0, SVG Export Plug-In . SVG Version: 6.00 Build 0)  -->
<!DOCTYPE svg PUBLIC "-//W3C//DTD SVG 1.1//EN" "http://www.w3.org/Graphics/SVG/1.1/DTD/svg11.dtd">
<svg version="1.1" id="Capa_1" xmlns="http://www.w3.org/2000/svg" xmlns:xlink="http://www.w3.org/1999/xlink" x="0px" y="0px"
	 width="37.46px" height="37.459px" viewBox="0 0 37.46 37.459" style="enable-background:new 0 0 37.46 37.459;"
	 xml:space="preserve">
<g>
	<path d="M20.279,4.812l-5.151,2.975L6.102,2.44L0,12.737l3.234,1.916L3.1,14.731v20.26h1.465l0.016,0.029l0.054-0.029h31.288
		l0.056,0.029l0.017-0.029h1.465v-20.26L20.279,4.812z M20.279,7.122l14.188,8.19l-11.729,6.771l4.293-7.247l-9.927-5.881
		L20.279,7.122z M9.987,11.698c1.154-1.948,3.667-2.592,5.616-1.438c1.949,1.154,2.593,3.669,1.438,5.617
		c-1.154,1.948-3.668,2.592-5.617,1.438C9.477,16.161,8.833,13.647,9.987,11.698z M5.101,17.048L18.77,24.94L5.101,32.454V17.048z
		 M8.274,32.991l12.003-6.598l12.006,6.598H8.274z M35.458,32.456l-13.67-7.515l13.67-7.893V32.456z M11.676,15.901l0.152,0.096
		l-0.32,0.541l0.551,0.327l0.321-0.542l0.169,0.097c0.579,0.343,1.045,0.48,1.4,0.412c0.353-0.07,0.682-0.359,0.986-0.871
		c0.282-0.476,0.368-0.865,0.261-1.169c-0.107-0.306-0.455-0.655-1.042-1.048l-0.178-0.114l0.718-1.211l0.128,0.075
		c0.449,0.267,0.566,0.578,0.354,0.937l-0.049,0.09l0.79,0.468l0.066-0.11c0.281-0.475,0.362-0.868,0.24-1.175
		c-0.122-0.31-0.489-0.646-1.101-1.008l0.278-0.471l-0.55-0.327l-0.279,0.471c-0.642-0.379-1.134-0.549-1.48-0.507
		c-0.344,0.044-0.663,0.313-0.957,0.809c-0.303,0.512-0.391,0.931-0.267,1.255c0.126,0.325,0.51,0.681,1.153,1.062L12.244,15.3
		l-0.12-0.075c-0.33-0.195-0.517-0.365-0.56-0.507c-0.044-0.144,0.022-0.364,0.198-0.663l0.05-0.084l-0.817-0.484l-0.102,0.165
		c-0.289,0.487-0.376,0.9-0.257,1.236C10.753,15.221,11.101,15.561,11.676,15.901z M12.958,12.167
		c0.227-0.384,0.583-0.433,1.068-0.145l0.12,0.065l-0.704,1.188c-0.074-0.05-0.113-0.077-0.117-0.079
		C12.842,12.913,12.72,12.567,12.958,12.167z M13.555,14.342c0.37,0.22,0.59,0.401,0.659,0.55c0.07,0.147,0.034,0.345-0.114,0.591
		c-0.266,0.451-0.662,0.521-1.188,0.21l-0.117-0.069L13.555,14.342z"/>
</g>
<g>
</g>
<g>
</g>
<g>
</g>
<g>
</g>
<g>
</g>
<g>
</g>
<g>
</g>
<g>
</g>
<g>
</g>
<g>
</g>
<g>
</g>
<g>
</g>
<g>
</g>
<g>
</g>
<g>
</g>
</svg>
