<?xml version="1.0" encoding="iso-8859-1"?>
<!-- Generator: Adobe Illustrator 16.0.0, SVG Export Plug-In . SVG Version: 6.00 Build 0)  -->
<!DOCTYPE svg PUBLIC "-//W3C//DTD SVG 1.1//EN" "http://www.w3.org/Graphics/SVG/1.1/DTD/svg11.dtd">
<svg version="1.1" id="Capa_1" xmlns="http://www.w3.org/2000/svg" xmlns:xlink="http://www.w3.org/1999/xlink" x="0px" y="0px"
	 width="612.001px" height="612px" viewBox="0 0 612.001 612" style="enable-background:new 0 0 612.001 612;" xml:space="preserve"
	>
<g>
	<g>
		<g>
			<path d="M612.001,238.057c0,5.279-4.283,9.562-9.562,9.562c-5.28,0-9.563-4.303-9.563-9.562V99.401H19.126v178.5h58.371
				c5.279,0,9.563,4.283,9.563,9.563s-4.283,9.563-9.563,9.563H9.822H9.563c-5.279,0-9.563-4.283-9.563-9.563V90.097v-0.259
				c0.001-5.279,4.284-9.562,9.564-9.562H602.18h0.239c5.279,0,9.563,4.283,9.563,9.563v148.219L612.001,238.057L612.001,238.057z
				 M534.485,297.026h67.934c5.279,0,9.563-4.283,9.563-9.563s-4.283-9.563-9.563-9.563h-67.934c-5.279,0-9.563,4.283-9.563,9.563
				S529.226,297.026,534.485,297.026z"/>
			<path d="M96.024,198.214c-5.279,0-9.563-4.283-9.563-9.563c0-5.28,4.283-9.563,9.563-9.563h419.953
				c5.279,0,9.563,4.283,9.563,9.563c0,5.28-4.283,9.563-9.563,9.563H96.024z"/>
			<path d="M207.189,228.495c5.259,0,9.563,4.283,9.563,9.563c0,5.28-4.283,9.562-9.563,9.562h-76.898v178.5h351.402v-178.5h-33.668
				c-5.279,0-9.563-4.283-9.563-9.562c0-5.28,4.283-9.563,9.563-9.563h42.99h0.239c5.279,0,9.563,4.283,9.563,9.563v197.386v0.239
				c0,5.278-4.305,9.562-9.563,9.562H120.967h-0.239c-5.279,0-9.563-4.283-9.563-9.562V238.316v-0.259
				c0-5.279,4.283-9.563,9.563-9.563L207.189,228.495L207.189,228.495z M404.794,228.495H250.399c-5.279,0-9.563,4.283-9.563,9.563
				c0,5.28,4.283,9.562,9.563,9.562h154.395c5.279,0,9.563-4.283,9.563-9.562C414.376,232.778,410.073,228.495,404.794,228.495z"/>
			<path d="M120.728,488.495c-5.279,0-9.563-4.303-9.563-9.562c0-5.279,4.303-9.563,9.563-9.563h370.547
				c5.278,0,9.562,4.283,9.562,9.563c0,5.279-4.303,9.562-9.562,9.562H120.728z"/>
			<path d="M120.728,531.725c-5.279,0-9.563-4.283-9.563-9.563c0-5.279,4.303-9.562,9.563-9.562h370.547
				c5.278,0,9.562,4.283,9.562,9.562c0,5.28-4.303,9.563-9.562,9.563H120.728z"/>
			<path d="M197.626,238.057c0-5.279,4.283-9.563,9.563-9.563c5.259,0,9.563,4.283,9.563,9.563
				c0,24.643,10.001,46.956,26.138,63.092c16.156,16.157,38.469,26.137,63.112,26.137c24.663,0,46.976-9.979,63.093-26.097
				l0.021-0.02l-0.021-0.02c16.138-16.137,26.139-38.449,26.139-63.092c0-5.279,4.282-9.563,9.562-9.563s9.563,4.283,9.563,9.563
				c0,29.922-12.134,57.036-31.736,76.64l-0.021-0.021c-19.623,19.623-46.717,31.774-76.6,31.774
				c-29.923,0-57.036-12.132-76.64-31.755C209.758,295.093,197.626,268,197.626,238.057z"/>
			<path d="M120.728,371.155c-5.279,0-9.563-4.283-9.563-9.562c0-5.28,4.283-9.563,9.563-9.563c23.109,0,44.027,9.363,59.168,24.504
				c15.121,15.121,24.504,36.06,24.504,59.168c0,5.279-4.283,9.563-9.563,9.563c-5.28,0-9.563-4.283-9.563-9.563
				c0-17.83-7.231-33.967-18.906-45.641C154.694,378.386,138.538,371.155,120.728,371.155z"/>
			<path d="M491.274,352.03c5.278,0,9.562,4.283,9.562,9.563c0,5.279-4.303,9.562-9.562,9.562c-17.851,0-33.986,7.212-45.642,18.866
				l-0.04,0.04c-11.653,11.654-18.866,27.791-18.866,45.641c0,5.279-4.282,9.563-9.562,9.563s-9.563-4.283-9.563-9.563
				c0-23.05,9.363-43.968,24.505-59.128l0.04-0.04C447.307,361.393,468.225,352.03,491.274,352.03z"/>
		</g>
	</g>
</g>
<g>
</g>
<g>
</g>
<g>
</g>
<g>
</g>
<g>
</g>
<g>
</g>
<g>
</g>
<g>
</g>
<g>
</g>
<g>
</g>
<g>
</g>
<g>
</g>
<g>
</g>
<g>
</g>
<g>
</g>
</svg>
